<?xml version="1.0" standalone="no"?>
<!DOCTYPE svg PUBLIC "-//W3C//DTD SVG 20010904//EN"
 "http://www.w3.org/TR/2001/REC-SVG-20010904/DTD/svg10.dtd">
<svg version="1.0" xmlns="http://www.w3.org/2000/svg"
 width="512.000000pt" height="512.000000pt" viewBox="0 0 512.000000 512.000000"
 preserveAspectRatio="xMidYMid meet">
<metadata>
Created by potrace 1.14, written by Peter Selinger 2001-2017
</metadata>
<g transform="translate(0.000000,512.000000) scale(0.100000,-0.100000)"
fill="#000000" stroke="none">
<path d="M4585 4430 c-11 -4 -625 -614 -1365 -1354 l-1345 -1346 -660 660
c-363 362 -671 663 -685 668 -14 5 -34 6 -45 2 -11 -5 -125 -114 -254 -243
-229 -230 -234 -236 -227 -269 5 -27 170 -196 918 -945 622 -622 919 -913 937
-916 14 -3 35 0 46 6 11 5 736 727 1612 1602 1044 1044 1594 1601 1599 1619 4
16 1 34 -9 49 -20 29 -458 467 -468 467 -4 0 -13 2 -21 4 -7 3 -22 1 -33 -4z"/>
</g>
</svg>
